<svg width="0" height="0" viewBox="0 0 439.502 111.035" xmlns="http://www.w3.org/2000/svg"><g id="svgGroup"><path d="M 65.576 13.965 A 252.972 252.972 0 0 0 70.41 14.209 A 18.77 18.77 0 0 0 70.07 13.624 Q 69.884 13.315 69.664 12.973 A 39.993 39.993 0 0 0 69.092 12.109 A 50.804 50.804 0 0 0 68.442 11.177 A 62.273 62.273 0 0 0 67.236 9.546 A 214.911 214.911 0 0 0 65.112 6.812 A 225.916 225.916 0 0 0 64.044 5.469 A 183.683 183.683 0 0 0 63.037 4.224 A 301.258 301.258 0 0 0 62.767 3.893 Q 62.368 3.406 62.008 2.971 A 171.314 171.314 0 0 0 61.304 2.124 Q 60.547 1.221 60.205 0.83 A 127.577 127.577 0 0 0 57.794 0.853 A 113.964 113.964 0 0 0 45.288 1.758 A 153.956 153.956 0 0 0 40.057 2.526 A 127.694 127.694 0 0 0 31.934 4.126 A 142.96 142.96 0 0 0 26.718 5.438 A 111.181 111.181 0 0 0 20.63 7.275 A 193.164 193.164 0 0 0 17.579 8.325 Q 16.123 8.84 14.805 9.335 A 107.407 107.407 0 0 0 11.841 10.498 A 141.18 141.18 0 0 0 11.508 10.635 Q 9.188 11.595 7.522 12.383 A 41.161 41.161 0 0 0 6.055 13.11 A 63.235 63.235 0 0 0 5.482 13.414 Q 3.919 14.252 3.711 14.502 A 16.845 16.845 0 0 0 3.545 14.713 Q 3.032 15.375 2.466 16.235 A 32.976 32.976 0 0 0 1.245 18.237 A 21.731 21.731 0 0 0 1.21 18.3 Q 0.948 18.771 0.735 19.209 A 13.457 13.457 0 0 0 0.342 20.093 Q 0.104 20.687 0.032 21.104 A 1.954 1.954 0 0 0 0 21.436 A 1.44 1.44 0 0 0 0 21.463 Q 0.003 21.586 0.027 21.644 A 0.108 0.108 0 0 0 0.049 21.68 Q 0.049 21.729 0.098 21.729 A 77.687 77.687 0 0 1 1.517 24.408 A 67.232 67.232 0 0 1 4.932 32.373 A 84.945 84.945 0 0 1 5.806 34.992 A 73.444 73.444 0 0 1 7.788 42.627 A 86.727 86.727 0 0 1 8.247 45.094 A 75.29 75.29 0 0 1 9.131 52.222 A 133.461 133.461 0 0 1 9.346 55.734 A 107.554 107.554 0 0 1 9.473 60.84 A 110.166 110.166 0 0 1 9.424 64.197 A 82.033 82.033 0 0 1 9.277 67.236 A 130.897 130.897 0 0 1 9.221 68.033 Q 9.134 69.206 9.034 70.253 A 73.423 73.423 0 0 1 8.813 72.29 A 105.495 105.495 0 0 1 8.8 72.395 Q 8.606 73.959 8.411 75.137 A 38.226 38.226 0 0 1 8.276 75.903 A 351.72 351.72 0 0 0 8.235 76.126 Q 8.064 77.047 7.97 77.583 A 41.366 41.366 0 0 0 7.91 77.93 A 21.2 21.2 0 0 1 7.944 77.967 Q 8.385 78.46 9.302 79.541 A 246.409 246.409 0 0 0 10.297 80.707 A 309.253 309.253 0 0 0 11.377 81.958 A 269.037 269.037 0 0 1 13.574 84.522 A 63.313 63.313 0 0 0 13.621 84.577 Q 14.331 85.414 14.89 86.013 A 20.304 20.304 0 0 0 15.381 86.524 A 1669.913 1669.913 0 0 1 15.519 86.243 Q 16.503 84.241 17.857 81.497 A 5204.07 5204.07 0 0 1 18.872 79.443 A 645.27 645.27 0 0 0 21.088 74.915 A 855.761 855.761 0 0 0 23.486 69.922 A 555.771 555.771 0 0 0 26.013 64.545 A 646.674 646.674 0 0 0 28.613 58.862 A 420.034 420.034 0 0 0 33.667 47.217 A 305.591 305.591 0 0 0 34.85 44.333 A 272.214 272.214 0 0 0 38.086 35.938 A 163.617 163.617 0 0 0 38.102 35.895 Q 40.093 30.451 41.309 25.928 Q 40.805 25.324 40.013 24.5 A 57.317 57.317 0 0 0 39.233 23.706 A 114.722 114.722 0 0 0 37.836 22.333 A 137.398 137.398 0 0 0 36.328 20.899 A 158.456 158.456 0 0 0 33.228 18.067 A 146.57 146.57 0 0 0 33.191 18.034 Q 32.06 17.029 31.181 16.29 A 54.506 54.506 0 0 0 30.615 15.82 A 25.971 25.971 0 0 0 30.6 15.873 Q 30.395 16.575 29.832 18.636 A 912.367 912.367 0 0 0 29.541 19.702 A 356.714 356.714 0 0 1 29.501 19.851 Q 28.89 22.092 28.035 25.118 A 1033.661 1033.661 0 0 1 27.417 27.295 Q 26.73 29.707 25.925 32.451 A 990.124 990.124 0 0 1 24.414 37.549 A 453.173 453.173 0 0 1 23.541 40.431 A 509.822 509.822 0 0 1 20.703 49.39 Q 18.701 55.518 16.479 61.743 A 251.239 251.239 0 0 1 15.361 64.815 A 219.604 219.604 0 0 1 11.914 73.535 A 24.077 24.077 0 0 0 12.046 72.816 Q 12.152 72.191 12.242 71.475 A 47.281 47.281 0 0 0 12.402 70.02 A 41.252 41.252 0 0 0 12.412 69.937 Q 12.601 68.249 12.744 65.747 A 73.18 73.18 0 0 0 12.782 65.01 Q 12.836 63.881 12.863 62.608 A 131.833 131.833 0 0 0 12.891 59.815 A 105.308 105.308 0 0 0 12.89 59.584 Q 12.883 56.107 12.646 51.807 A 100.762 100.762 0 0 0 12.385 48.239 A 124.729 124.729 0 0 0 11.694 42.285 A 116.591 116.591 0 0 0 11.084 38.401 A 138.795 138.795 0 0 0 9.717 31.592 A 89.541 89.541 0 0 0 9.212 29.478 A 100.503 100.503 0 0 0 6.348 20.117 A 89.998 89.998 0 0 1 8.92 19.095 A 78.12 78.12 0 0 1 16.455 16.65 Q 21.387 15.332 26.318 14.6 A 106.382 106.382 0 0 1 36.279 13.599 A 179.312 179.312 0 0 1 37.542 13.536 A 197.531 197.531 0 0 1 46.68 13.33 Q 50.879 13.33 54.224 13.428 A 302.026 302.026 0 0 1 57.428 13.538 A 229.695 229.695 0 0 1 60.352 13.672 Q 63.135 13.818 65.576 13.965 Z M 197.607 36.133 L 189.209 28.711 A 20.994 20.994 0 0 0 191.265 26.776 A 27.354 27.354 0 0 0 192.822 24.951 Q 194.58 22.705 195.947 20.215 Q 197.314 17.725 198.145 15.137 Q 198.975 12.549 198.975 10.303 A 6.355 6.355 0 0 0 198.823 8.878 A 4.708 4.708 0 0 0 198.12 7.251 A 2.594 2.594 0 0 0 196.875 6.3 Q 196.112 6.006 195.02 6.006 Q 193.299 6.006 191.26 6.723 A 17.038 17.038 0 0 0 190.82 6.885 A 22.641 22.641 0 0 0 187.933 8.241 A 27.68 27.68 0 0 0 186.182 9.302 A 31.057 31.057 0 0 0 182.735 11.939 A 35.81 35.81 0 0 0 181.616 12.964 A 29.342 29.342 0 0 0 177.686 17.578 A 25.13 25.13 0 0 0 174.927 22.803 A 15.287 15.287 0 0 0 173.877 28.32 A 16.4 16.4 0 0 0 173.981 30.222 Q 174.093 31.177 174.324 31.997 A 9.152 9.152 0 0 0 174.463 32.446 A 9.474 9.474 0 0 0 176.172 35.523 A 13.6 13.6 0 0 0 178.072 37.376 A 16.068 16.068 0 0 0 178.882 37.988 A 47.287 47.287 0 0 0 180.585 39.136 A 64.294 64.294 0 0 0 182.52 40.332 A 55.079 55.079 0 0 0 171.216 46.704 A 53.851 53.851 0 0 0 164.879 52.13 A 46.146 46.146 0 0 0 162.354 54.883 A 40.8 40.8 0 0 0 158.354 60.481 A 34.213 34.213 0 0 0 156.567 63.941 A 25.362 25.362 0 0 0 155.027 68.442 A 19.445 19.445 0 0 0 154.492 72.9 A 5.296 5.296 0 0 0 154.699 74.405 A 4.508 4.508 0 0 0 155.225 75.562 A 2.392 2.392 0 0 0 156.963 76.669 A 3.683 3.683 0 0 0 157.52 76.709 A 8.969 8.969 0 0 0 159.478 76.478 Q 160.371 76.278 161.34 75.905 A 17.241 17.241 0 0 0 162.109 75.586 A 32.452 32.452 0 0 0 165.028 74.106 A 41.651 41.651 0 0 0 167.383 72.656 Q 170.117 70.85 172.876 68.604 A 98.414 98.414 0 0 0 177.404 64.69 A 88.566 88.566 0 0 0 178.052 64.087 A 102.096 102.096 0 0 0 180.341 61.871 A 79.166 79.166 0 0 0 182.373 59.766 A 97.159 97.159 0 0 0 183.276 58.78 Q 184.473 57.455 185.287 56.442 A 31.252 31.252 0 0 0 185.4 56.299 Q 187.415 57.91 189.059 59.279 A 158.801 158.801 0 0 1 190.479 60.474 Q 192.627 62.305 194.482 63.818 A 15.844 15.844 0 0 1 193.929 64.52 Q 193.11 65.505 191.724 66.943 Q 189.923 68.812 187.484 70.937 A 94.269 94.269 0 0 1 187.134 71.24 A 104.65 104.65 0 0 1 183.617 74.138 A 124.181 124.181 0 0 1 181.323 75.903 A 67.287 67.287 0 0 1 174.927 80.176 A 45.956 45.956 0 0 1 170.497 82.471 A 39.514 39.514 0 0 1 168.506 83.301 A 20.53 20.53 0 0 1 165.924 84.114 Q 164.539 84.445 163.273 84.507 A 11.784 11.784 0 0 1 162.695 84.522 A 13.951 13.951 0 0 1 158.13 83.74 A 20.687 20.687 0 0 1 153.809 81.665 A 23.105 23.105 0 0 1 150.024 78.687 A 26.788 26.788 0 0 1 147.672 76.091 A 23.695 23.695 0 0 1 146.997 75.195 A 20.964 20.964 0 0 1 145.58 72.937 A 17.499 17.499 0 0 1 144.922 71.582 Q 144.141 69.775 144.092 68.213 L 144.092 67.041 Q 144.092 61.914 145.898 57.373 A 31.415 31.415 0 0 1 150.854 48.999 A 40.441 40.441 0 0 1 158.096 42.163 A 44.719 44.719 0 0 1 158.228 42.066 A 55.45 55.45 0 0 1 167.285 36.67 A 28.024 28.024 0 0 1 165.779 35.036 A 31.211 31.211 0 0 1 165.552 34.766 A 12.095 12.095 0 0 1 164.292 32.922 A 13.849 13.849 0 0 1 164.038 32.446 A 12.314 12.314 0 0 1 163.319 30.705 A 15.087 15.087 0 0 1 162.988 29.541 A 13.514 13.514 0 0 1 162.678 27.662 A 17.976 17.976 0 0 1 162.598 25.928 A 18.992 18.992 0 0 1 163.818 19.238 Q 165.039 15.967 167.09 13.086 A 29.994 29.994 0 0 1 171.899 7.813 Q 174.658 5.42 177.734 3.687 A 31.306 31.306 0 0 1 184.033 0.977 A 22.753 22.753 0 0 1 188.179 0.115 A 19.502 19.502 0 0 1 190.283 0 A 39.005 39.005 0 0 1 192.609 0.064 Q 194.821 0.197 196.222 0.605 A 6.213 6.213 0 0 1 197.314 1.025 Q 198.708 1.763 200.291 3.052 A 29.025 29.025 0 0 1 200.903 3.565 A 31.583 31.583 0 0 1 204.492 7.202 A 26.763 26.763 0 0 1 206.501 9.913 A 22.795 22.795 0 0 1 207.275 11.206 A 11.215 11.215 0 0 1 207.915 12.55 Q 208.194 13.265 208.312 13.92 A 5.211 5.211 0 0 1 208.398 14.844 A 18.587 18.587 0 0 1 207.98 18.694 A 22.779 22.779 0 0 1 207.471 20.654 Q 206.543 23.682 205.029 26.538 A 36.914 36.914 0 0 1 201.562 31.909 A 32.971 32.971 0 0 1 199.597 34.223 A 24.75 24.75 0 0 1 197.607 36.133 Z M 296.094 52.637 A 162.191 162.191 0 0 0 294.94 55.711 A 177.754 177.754 0 0 0 294.922 55.762 A 96.432 96.432 0 0 0 293.799 59.033 Q 296.875 55.371 298.901 53.174 A 96.154 96.154 0 0 1 299.872 52.136 Q 301.068 50.877 301.98 50.024 A 27.689 27.689 0 0 1 302.271 49.756 A 23.149 23.149 0 0 1 303.027 49.096 Q 303.753 48.491 304.311 48.152 A 5.45 5.45 0 0 1 304.492 48.047 A 12.057 12.057 0 0 1 305.233 47.666 Q 305.577 47.506 305.895 47.388 A 6.824 6.824 0 0 1 306.104 47.315 Q 306.543 47.315 307.593 47.803 A 22.513 22.513 0 0 1 308.679 48.346 A 29.616 29.616 0 0 1 309.839 48.999 A 34.147 34.147 0 0 1 312.042 50.417 A 31.434 31.434 0 0 1 312.109 50.464 Q 312.979 51.076 313.432 51.513 A 3.835 3.835 0 0 1 313.623 51.709 Q 313.98 52.066 313.766 52.71 A 2.234 2.234 0 0 1 313.721 52.832 A 179.504 179.504 0 0 0 312.573 55.982 Q 312.012 57.568 311.475 59.229 A 257.943 257.943 0 0 1 313.043 57.442 Q 315.295 54.901 316.943 53.198 A 112.496 112.496 0 0 1 317.992 52.129 Q 319.489 50.623 320.532 49.707 A 25.027 25.027 0 0 1 321.19 49.149 Q 321.859 48.602 322.35 48.297 A 4.457 4.457 0 0 1 322.705 48.096 A 6.186 6.186 0 0 1 323.096 47.916 Q 323.484 47.755 323.764 47.717 A 1.211 1.211 0 0 1 323.926 47.705 Q 324.413 47.705 325.274 48.079 A 11.42 11.42 0 0 1 325.83 48.34 A 17.994 17.994 0 0 1 327.587 49.351 A 21.417 21.417 0 0 1 328.394 49.902 A 18.599 18.599 0 0 1 329.741 50.962 A 14.739 14.739 0 0 1 330.64 51.807 A 5.74 5.74 0 0 1 331.056 52.28 Q 331.463 52.801 331.561 53.244 A 1.259 1.259 0 0 1 331.592 53.516 Q 331.592 53.662 331.543 53.882 A 5.888 5.888 0 0 1 331.516 53.999 Q 331.47 54.187 331.396 54.443 Q 331.128 55.283 330.756 56.33 A 100.375 100.375 0 0 1 330.396 57.324 A 256.539 256.539 0 0 1 329.439 59.883 A 287.336 287.336 0 0 1 329.102 60.767 L 327.734 64.331 A 113.171 113.171 0 0 0 327.087 66.058 A 91.154 91.154 0 0 0 326.514 67.676 Q 326.144 68.75 325.867 69.64 A 44.77 44.77 0 0 0 325.635 70.41 A 15.811 15.811 0 0 0 325.485 70.957 Q 325.293 71.716 325.293 72.119 A 0.422 0.422 0 0 0 325.307 72.235 Q 325.345 72.365 325.477 72.4 A 0.432 0.432 0 0 0 325.586 72.412 Q 325.995 72.412 326.716 72.044 A 9.017 9.017 0 0 0 327.197 71.777 A 21.872 21.872 0 0 0 328.048 71.246 Q 328.514 70.941 329.028 70.576 A 42.805 42.805 0 0 0 329.663 70.117 A 78.954 78.954 0 0 0 331.45 68.759 A 94.112 94.112 0 0 0 332.568 67.871 A 121.062 121.062 0 0 0 335.299 65.604 A 110.867 110.867 0 0 0 335.474 65.454 A 689.302 689.302 0 0 0 336.798 64.313 A 503.835 503.835 0 0 0 337.988 63.281 A 228.709 228.709 0 0 1 338.516 62.824 Q 339.026 62.383 339.393 62.072 A 50.977 50.977 0 0 1 339.697 61.817 Q 340.134 62.253 340.74 62.931 A 52.191 52.191 0 0 1 340.747 62.94 A 145.838 145.838 0 0 0 341.339 63.599 A 117.818 117.818 0 0 0 341.895 64.209 A 114.41 114.41 0 0 1 341.013 65.08 Q 340.216 65.86 339.209 66.821 A 83.773 83.773 0 0 1 336.866 68.971 A 98.07 98.07 0 0 1 335.718 69.971 A 137.542 137.542 0 0 1 331.812 73.193 A 62.498 62.498 0 0 1 329.326 75.074 A 51.912 51.912 0 0 1 327.881 76.074 A 33.177 33.177 0 0 1 326.093 77.19 Q 325.23 77.689 324.424 78.074 A 20.141 20.141 0 0 1 324.316 78.125 A 11.024 11.024 0 0 1 323.326 78.537 Q 322.816 78.719 322.362 78.811 A 4.421 4.421 0 0 1 321.484 78.906 A 2.764 2.764 0 0 1 320.941 78.847 Q 320.37 78.732 319.629 78.394 Q 318.506 77.881 317.48 77.124 A 9.336 9.336 0 0 1 316.032 75.809 A 8.434 8.434 0 0 1 315.723 75.44 A 4.155 4.155 0 0 1 315.306 74.808 Q 314.99 74.21 314.99 73.633 Q 315.368 71.912 315.962 69.795 A 100.358 100.358 0 0 1 316.162 69.092 A 141.979 141.979 0 0 1 317.664 64.224 A 154.898 154.898 0 0 1 317.773 63.892 A 165.668 165.668 0 0 1 319.604 58.643 A 206.215 206.215 0 0 1 320.538 56.152 A 163.991 163.991 0 0 1 321.436 53.858 A 34.584 34.584 0 0 1 320.652 54.763 Q 320.266 55.194 319.815 55.676 A 78.249 78.249 0 0 1 318.848 56.69 Q 317.74 57.831 316.424 59.468 A 69.787 69.787 0 0 0 315.186 61.06 A 51.252 51.252 0 0 0 313.606 63.274 Q 312.256 65.271 310.791 67.774 A 59.513 59.513 0 0 0 308.777 71.539 Q 307.44 74.253 306.104 77.539 A 1.452 1.452 0 0 1 305.831 78.065 Q 305.451 78.516 304.687 78.516 A 4.013 4.013 0 0 1 304.216 78.485 Q 303.784 78.434 303.247 78.296 A 8.504 8.504 0 0 1 302.283 77.983 A 11.201 11.201 0 0 1 301.44 77.612 A 14.438 14.438 0 0 1 300.231 76.947 A 17.689 17.689 0 0 1 299.487 76.465 A 10.261 10.261 0 0 1 297.941 75.161 A 11.702 11.702 0 0 1 297.607 74.805 Q 297.607 74.512 297.876 73.201 A 74.08 74.08 0 0 1 297.974 72.73 Q 298.34 70.996 299.048 68.311 Q 299.745 65.668 300.701 62.41 A 298.885 298.885 0 0 1 300.732 62.305 A 145.269 145.269 0 0 1 302.335 57.214 A 161.905 161.905 0 0 1 302.93 55.469 A 145.601 145.601 0 0 0 302.307 56.148 Q 301.318 57.233 300 58.716 A 45.816 45.816 0 0 0 298.415 60.605 Q 297.629 61.593 296.798 62.728 A 79.86 79.86 0 0 0 296.24 63.501 A 63.251 63.251 0 0 0 294.214 66.535 Q 293.192 68.158 292.147 70.005 A 112.911 112.911 0 0 0 292.139 70.02 A 60.544 60.544 0 0 0 289.854 74.503 A 77.842 77.842 0 0 0 288.184 78.418 Q 287.933 79.295 287.112 79.422 A 1.93 1.93 0 0 1 286.816 79.443 A 3.594 3.594 0 0 1 286.048 79.355 Q 285.69 79.276 285.299 79.128 A 7.18 7.18 0 0 1 284.937 78.98 A 12.086 12.086 0 0 1 283.673 78.325 A 15.172 15.172 0 0 1 282.788 77.759 A 27.774 27.774 0 0 1 280.934 76.36 A 31.107 31.107 0 0 1 280.591 76.074 A 26.132 26.132 0 0 1 279.303 74.915 A 21.887 21.887 0 0 1 278.613 74.219 Q 278.613 73.945 278.848 72.73 A 63.579 63.579 0 0 1 278.882 72.559 A 59.394 59.394 0 0 1 279.03 71.831 Q 279.256 70.75 279.591 69.321 A 171.574 171.574 0 0 1 279.639 69.116 A 137.179 137.179 0 0 1 280.108 67.188 Q 280.355 66.205 280.64 65.117 A 234.287 234.287 0 0 1 280.835 64.38 A 118.883 118.883 0 0 1 281.912 60.594 A 139.986 139.986 0 0 1 282.471 58.789 A 137.344 137.344 0 0 1 284.451 52.998 A 149.384 149.384 0 0 1 284.521 52.808 A 92.35 92.35 0 0 1 286.914 46.924 A 62.743 62.743 0 0 1 288.939 47.936 Q 289.993 48.486 291.148 49.13 A 104.958 104.958 0 0 1 291.479 49.317 Q 293.994 50.733 296.094 52.637 Z M 352.002 53.32 L 350.342 58.203 Q 352.361 55.698 354.122 53.866 A 40.762 40.762 0 0 1 355.176 52.808 A 56.254 56.254 0 0 1 356.752 51.338 Q 357.496 50.672 358.169 50.128 A 25.757 25.757 0 0 1 359.058 49.439 Q 360.665 48.25 361.806 47.751 A 6.7 6.7 0 0 1 361.914 47.705 A 11.435 11.435 0 0 1 362.463 47.492 Q 363.232 47.217 363.672 47.217 Q 364.306 47.217 365.037 47.603 A 5.158 5.158 0 0 1 365.381 47.803 A 12.232 12.232 0 0 1 366.645 48.724 A 14.504 14.504 0 0 1 367.212 49.219 A 23.766 23.766 0 0 1 368.896 50.928 Q 369.639 51.763 370.161 52.29 A 17.418 17.418 0 0 0 370.215 52.344 A 2.771 2.771 0 0 1 370.588 52.801 A 1.991 1.991 0 0 1 370.874 53.491 A 6.333 6.333 0 0 1 370.996 54.736 A 15.562 15.562 0 0 1 370.801 57.135 Q 370.605 58.386 370.215 59.741 A 34.953 34.953 0 0 1 368.164 65.112 Q 366.895 67.774 365.283 70.166 A 31.816 31.816 0 0 1 363.672 72.36 A 23.337 23.337 0 0 1 362.012 74.219 A 23.96 23.96 0 0 0 363.993 73.286 A 28.436 28.436 0 0 0 364.917 72.778 A 51.803 51.803 0 0 0 367.871 70.947 Q 369.336 69.971 370.752 68.921 A 84.368 84.368 0 0 0 372.794 67.36 A 75.101 75.101 0 0 0 373.437 66.846 Q 376.416 64.502 379.199 61.817 L 381.396 64.209 A 102.989 102.989 0 0 1 379.694 65.772 A 132.349 132.349 0 0 1 377.808 67.432 A 97.242 97.242 0 0 1 373.682 70.801 A 90.297 90.297 0 0 1 369.312 73.975 A 68.959 68.959 0 0 1 366.601 75.733 A 56.743 56.743 0 0 1 365.039 76.66 A 34.446 34.446 0 0 1 363.181 77.652 Q 362.164 78.153 361.23 78.516 A 12.708 12.708 0 0 1 360.08 78.905 Q 359.501 79.068 358.987 79.141 A 5.604 5.604 0 0 1 358.203 79.199 Q 357.333 79.199 356.033 78.697 A 12.615 12.615 0 0 1 356.006 78.687 Q 354.687 78.174 353.442 77.442 A 13.107 13.107 0 0 1 352.15 76.579 A 10.463 10.463 0 0 1 351.294 75.855 Q 350.54 75.141 350.415 74.547 A 1.122 1.122 0 0 1 350.391 74.317 A 0.625 0.625 0 0 1 350.519 73.944 Q 350.591 73.845 350.703 73.751 A 1.76 1.76 0 0 1 350.903 73.608 A 5.575 5.575 0 0 0 351.189 73.418 Q 351.509 73.191 351.95 72.83 A 29.809 29.809 0 0 0 352.393 72.461 Q 353.369 71.631 354.736 69.971 Q 356.041 68.386 357.657 65.423 A 60.604 60.604 0 0 0 357.813 65.137 A 57.879 57.879 0 0 0 359.57 61.499 A 94.273 94.273 0 0 0 360.352 59.68 A 74.392 74.392 0 0 0 361.035 57.983 A 56.977 56.977 0 0 0 361.473 56.818 Q 361.682 56.244 361.85 55.736 A 28.006 28.006 0 0 0 362.036 55.151 A 19.383 19.383 0 0 0 362.179 54.664 Q 362.379 53.942 362.4 53.592 A 1.291 1.291 0 0 0 362.402 53.516 Q 362.402 53.076 362.28 52.905 Q 362.158 52.734 362.061 52.637 Q 361.896 52.596 361.766 52.624 A 0.454 0.454 0 0 0 361.719 52.637 A 1.621 1.621 0 0 0 361.361 52.803 Q 360.779 53.145 359.71 54.112 A 39.286 39.286 0 0 0 358.96 54.81 A 28.612 28.612 0 0 0 357.594 56.213 Q 356.066 57.884 354.225 60.311 A 90.574 90.574 0 0 0 354.102 60.474 A 72.949 72.949 0 0 0 351.966 63.465 Q 350.146 66.147 348.193 69.458 A 83.584 83.584 0 0 0 344.832 75.794 A 108.867 108.867 0 0 0 342.285 81.543 A 2043.145 2043.145 0 0 0 337.695 94.775 Q 335.4 101.465 333.203 108.106 L 320.801 111.035 Q 323.633 102.979 326.685 95.044 Q 329.736 87.109 332.739 79.175 Q 335.742 71.24 338.647 63.281 A 529.573 529.573 0 0 0 344.189 47.315 A 8.303 8.303 0 0 1 344.261 47.066 Q 344.334 46.828 344.4 46.676 A 1.385 1.385 0 0 1 344.458 46.558 A 0.38 0.38 0 0 1 344.651 46.391 Q 344.778 46.338 344.971 46.338 Q 345.496 46.502 346.175 46.853 A 15.058 15.058 0 0 1 346.875 47.241 A 20.388 20.388 0 0 1 348.822 48.544 A 22.597 22.597 0 0 1 349.097 48.755 A 22.586 22.586 0 0 1 350.384 49.833 A 19.06 19.06 0 0 1 351.074 50.488 Q 351.953 51.367 352.295 52.002 A 0.243 0.243 0 0 1 352.328 52.081 Q 352.362 52.222 352.283 52.477 A 2.025 2.025 0 0 1 352.271 52.515 L 352.002 53.32 Z M 391.126 72.315 A 11.278 11.278 0 0 0 391.528 72.119 Q 392.782 71.481 394.27 70.524 A 45.165 45.165 0 0 0 394.482 70.386 A 79.776 79.776 0 0 0 396.554 68.988 A 95.413 95.413 0 0 0 397.852 68.067 A 95.104 95.104 0 0 0 400.265 66.267 A 81.874 81.874 0 0 0 401.147 65.576 Q 402.686 64.356 403.906 63.33 Q 405.127 62.305 405.713 61.817 Q 406.152 62.256 406.763 62.94 A 145.838 145.838 0 0 0 407.355 63.599 A 117.818 117.818 0 0 0 407.91 64.209 A 114.41 114.41 0 0 1 407.029 65.08 Q 406.232 65.86 405.225 66.821 A 83.773 83.773 0 0 1 402.882 68.971 A 98.07 98.07 0 0 1 401.733 69.971 A 137.542 137.542 0 0 1 397.827 73.193 A 58.334 58.334 0 0 1 395.332 75.074 A 49.11 49.11 0 0 1 393.872 76.074 A 35.159 35.159 0 0 1 392.123 77.157 Q 391.165 77.71 390.283 78.125 A 11.364 11.364 0 0 1 389.3 78.537 Q 388.307 78.894 387.552 78.906 A 3.283 3.283 0 0 1 387.5 78.906 A 4.874 4.874 0 0 1 385.944 78.638 Q 385.344 78.436 384.72 78.084 A 9.17 9.17 0 0 1 384.302 77.832 Q 382.617 76.758 381.152 75.317 A 22.829 22.829 0 0 1 379.568 73.598 A 18.536 18.536 0 0 1 378.662 72.412 Q 377.645 70.96 377.493 70.227 A 1.578 1.578 0 0 1 377.49 70.215 Q 377.393 69.922 377.393 69.507 L 377.393 68.604 Q 377.393 66.963 377.668 64.739 A 60.493 60.493 0 0 1 378.003 62.427 A 95.588 95.588 0 0 1 378.928 57.586 A 115.619 115.619 0 0 1 379.639 54.517 A 116.974 116.974 0 0 1 382.007 46.216 Q 383.35 42.09 384.814 38.916 A 116.512 116.512 0 0 1 387.836 32.788 A 88.172 88.172 0 0 1 390.942 27.393 A 103.94 103.94 0 0 1 394.058 22.691 A 75.809 75.809 0 0 1 397.119 18.628 A 70.547 70.547 0 0 1 399.721 15.589 Q 401.364 13.782 402.93 12.354 Q 405.061 10.41 406.862 9.038 A 35.302 35.302 0 0 1 407.935 8.252 Q 410.107 6.724 411.626 6.037 A 10.986 10.986 0 0 1 411.694 6.006 Q 413.072 5.394 413.686 5.33 A 1.287 1.287 0 0 1 413.818 5.322 Q 414.746 5.664 415.698 6.323 Q 416.65 6.983 417.48 7.715 A 19.491 19.491 0 0 1 418.353 8.531 A 15.508 15.508 0 0 1 418.945 9.155 A 146.825 146.825 0 0 1 419.241 9.486 Q 419.643 9.938 419.862 10.193 A 19.646 19.646 0 0 1 419.873 10.205 Q 420.264 10.596 420.386 10.962 A 2.058 2.058 0 0 1 420.46 11.266 Q 420.487 11.424 420.499 11.609 A 4.805 4.805 0 0 1 420.508 11.914 A 6.544 6.544 0 0 1 420.452 12.721 Q 420.327 13.719 419.922 15.137 Q 419.363 17.094 417.87 20.052 A 59.01 59.01 0 0 1 417.725 20.337 Q 416.113 23.486 413.257 27.881 A 104.943 104.943 0 0 1 410.871 31.383 Q 408.679 34.473 405.811 38.135 A 200.016 200.016 0 0 1 401.864 42.995 A 220.034 220.034 0 0 1 401.27 43.701 A 118.478 118.478 0 0 1 399.06 46.253 A 162.554 162.554 0 0 1 396.533 49.024 Q 393.848 51.904 391.016 54.541 A 105.654 105.654 0 0 0 390.074 58.391 Q 389.389 61.45 389.038 64.014 A 92.463 92.463 0 0 0 388.792 65.952 Q 388.551 68.047 388.494 69.548 A 22.919 22.919 0 0 0 388.477 70.41 A 14.713 14.713 0 0 0 388.488 71.021 Q 388.53 72.02 388.721 72.363 A 1.024 1.024 0 0 0 388.89 72.593 A 0.7 0.7 0 0 0 389.404 72.803 Q 390.065 72.803 391.126 72.315 Z M 95.068 70.215 L 83.252 79.932 A 1.14 1.14 0 0 1 83.037 79.909 Q 82.809 79.864 82.497 79.736 A 5.837 5.837 0 0 1 82.275 79.639 A 8.681 8.681 0 0 1 81.049 78.944 A 9.425 9.425 0 0 1 81.03 78.931 A 22.328 22.328 0 0 1 80.473 78.54 Q 80.195 78.338 79.956 78.15 Q 79.595 77.865 79.515 77.713 A 0.168 0.168 0 0 1 79.492 77.637 A 0.729 0.729 0 0 1 79.499 77.534 Q 79.507 77.479 79.524 77.433 A 0.388 0.388 0 0 1 79.541 77.393 A 0.641 0.641 0 0 1 79.602 77.295 Q 79.634 77.252 79.675 77.21 A 1.079 1.079 0 0 1 79.687 77.197 L 94.043 65.137 A 289.159 289.159 0 0 1 93.45 62.048 Q 93.18 60.596 92.958 59.302 A 167.994 167.994 0 0 1 92.896 58.936 Q 92.44 56.251 92.102 54.978 A 13.517 13.517 0 0 0 92.09 54.932 Q 91.761 55.449 91.002 56.554 A 173.111 173.111 0 0 1 90.942 56.641 A 51.067 51.067 0 0 1 90.177 57.722 Q 89.778 58.271 89.323 58.871 A 88.115 88.115 0 0 1 89.014 59.277 A 44.022 44.022 0 0 1 87.568 61.06 A 55.027 55.027 0 0 1 86.45 62.329 Q 85.01 63.916 83.398 65.234 L 81.055 62.842 A 60.03 60.03 0 0 0 83.669 60.023 Q 84.852 58.658 85.797 57.369 A 32.87 32.87 0 0 0 86.401 56.519 Q 88.428 53.565 89.624 51.392 A 95.104 95.104 0 0 0 90.182 50.363 Q 90.778 49.249 91.165 48.44 A 23.233 23.233 0 0 0 91.382 47.974 A 7.219 7.219 0 0 1 91.588 47.551 Q 92.026 46.729 92.383 46.729 Q 93.121 46.729 94.096 46.84 A 25.896 25.896 0 0 1 94.751 46.924 Q 96.143 47.119 97.583 47.461 Q 99.023 47.803 100.293 48.267 A 10.124 10.124 0 0 1 101.136 48.616 Q 101.546 48.809 101.877 49.02 A 4.719 4.719 0 0 1 102.295 49.317 A 4.79 4.79 0 0 1 102.358 49.557 Q 102.502 50.152 102.783 51.663 A 155.243 155.243 0 0 1 102.832 51.929 A 1577.479 1577.479 0 0 0 103.146 53.628 Q 103.285 54.381 103.438 55.207 A 2862.115 2862.115 0 0 0 103.76 56.934 L 115.088 47.412 A 3.501 3.501 0 0 1 115.344 47.241 Q 115.615 47.079 115.826 47.036 A 0.717 0.717 0 0 1 115.967 47.022 Q 116.189 47.022 116.594 47.219 A 5.384 5.384 0 0 1 116.87 47.363 A 10.15 10.15 0 0 1 117.786 47.945 A 11.668 11.668 0 0 1 118.091 48.169 A 20.399 20.399 0 0 1 118.665 48.621 A 14.931 14.931 0 0 1 119.165 49.048 Q 119.585 49.423 119.585 49.579 A 0.095 0.095 0 0 1 119.58 49.609 A 0.153 0.153 0 0 1 119.567 49.667 Q 119.529 49.758 119.385 49.902 Q 119.247 50.041 118.151 50.984 A 309.725 309.725 0 0 1 118.018 51.099 A 147.862 147.862 0 0 1 117.357 51.663 Q 116.44 52.442 115.189 53.485 A 484.584 484.584 0 0 1 114.771 53.833 Q 113.029 55.281 110.855 57.089 A 31367.103 31367.103 0 0 0 110.132 57.691 A 2771.284 2771.284 0 0 1 106.09 61.046 A 3115.978 3115.978 0 0 1 104.687 62.207 A 1068.976 1068.976 0 0 1 105.327 65.616 A 1016.621 1016.621 0 0 1 105.347 65.723 A 274.734 274.734 0 0 0 105.633 67.244 Q 105.77 67.959 105.897 68.595 A 160.621 160.621 0 0 0 105.933 68.775 Q 106.2 70.109 106.418 71.01 A 28.381 28.381 0 0 0 106.421 71.021 Q 106.599 71.755 106.73 72.021 A 0.619 0.619 0 0 0 106.787 72.119 A 5.284 5.284 0 0 0 106.893 72.319 Q 107.025 72.557 107.227 72.876 A 0.829 0.829 0 0 0 107.584 73.18 Q 107.876 73.318 108.344 73.337 A 3.776 3.776 0 0 0 108.496 73.34 A 1.265 1.265 0 0 0 108.823 73.29 Q 109.332 73.152 110.156 72.632 A 25.724 25.724 0 0 0 111.047 72.043 Q 111.829 71.503 112.744 70.801 A 90.503 90.503 0 0 0 114.632 69.311 A 109.494 109.494 0 0 0 115.82 68.335 A 144.627 144.627 0 0 0 118.155 66.348 A 130.019 130.019 0 0 0 118.896 65.698 A 599.365 599.365 0 0 0 120.278 64.475 Q 120.932 63.893 121.515 63.371 A 446.886 446.886 0 0 0 121.533 63.355 Q 122.695 62.314 123.281 61.825 A 21.104 21.104 0 0 1 123.291 61.817 Q 123.728 62.253 124.334 62.931 A 52.191 52.191 0 0 1 124.341 62.94 A 145.838 145.838 0 0 0 124.933 63.599 A 117.818 117.818 0 0 0 125.488 64.209 Q 124.414 65.283 122.778 66.846 Q 121.143 68.408 119.189 70.068 Q 117.236 71.729 115.137 73.389 A 71.962 71.962 0 0 1 112.569 75.33 A 59.393 59.393 0 0 1 111.084 76.367 A 33.026 33.026 0 0 1 109.249 77.524 Q 108.362 78.041 107.532 78.439 A 20.06 20.06 0 0 1 107.422 78.491 Q 105.713 79.297 104.59 79.297 A 18.268 18.268 0 0 1 102.048 79.129 Q 100.51 78.912 99.219 78.418 A 6.574 6.574 0 0 1 98.075 77.858 Q 96.8 77.059 96.484 75.83 A 114.362 114.362 0 0 1 95.728 73.047 A 59.27 59.27 0 0 1 95.068 70.215 Z M 213.77 70.215 L 201.953 79.932 A 1.14 1.14 0 0 1 201.738 79.909 Q 201.51 79.864 201.198 79.736 A 5.837 5.837 0 0 1 200.977 79.639 A 8.681 8.681 0 0 1 199.751 78.944 A 9.425 9.425 0 0 1 199.731 78.931 A 22.328 22.328 0 0 1 199.175 78.54 Q 198.896 78.338 198.657 78.15 Q 198.296 77.865 198.216 77.713 A 0.168 0.168 0 0 1 198.193 77.637 A 0.729 0.729 0 0 1 198.2 77.534 Q 198.208 77.479 198.225 77.433 A 0.388 0.388 0 0 1 198.242 77.393 A 0.641 0.641 0 0 1 198.303 77.295 Q 198.335 77.252 198.377 77.21 A 1.079 1.079 0 0 1 198.389 77.197 L 212.744 65.137 A 289.159 289.159 0 0 1 212.152 62.048 Q 211.882 60.596 211.659 59.302 A 167.994 167.994 0 0 1 211.597 58.936 Q 211.141 56.251 210.803 54.978 A 13.517 13.517 0 0 0 210.791 54.932 Q 210.462 55.449 209.703 56.554 A 173.111 173.111 0 0 1 209.644 56.641 A 51.067 51.067 0 0 1 208.878 57.722 Q 208.479 58.271 208.024 58.871 A 88.115 88.115 0 0 1 207.715 59.277 A 44.022 44.022 0 0 1 206.269 61.06 A 55.027 55.027 0 0 1 205.151 62.329 Q 203.711 63.916 202.1 65.234 L 199.756 62.842 A 60.03 60.03 0 0 0 202.37 60.023 Q 203.553 58.658 204.498 57.369 A 32.87 32.87 0 0 0 205.103 56.519 Q 207.129 53.565 208.325 51.392 A 95.104 95.104 0 0 0 208.884 50.363 Q 209.479 49.249 209.866 48.44 A 23.233 23.233 0 0 0 210.083 47.974 A 7.219 7.219 0 0 1 210.289 47.551 Q 210.727 46.729 211.084 46.729 Q 211.822 46.729 212.797 46.84 A 25.896 25.896 0 0 1 213.452 46.924 Q 214.844 47.119 216.284 47.461 Q 217.725 47.803 218.994 48.267 A 10.124 10.124 0 0 1 219.837 48.616 Q 220.247 48.809 220.578 49.02 A 4.719 4.719 0 0 1 220.996 49.317 A 4.79 4.79 0 0 1 221.06 49.557 Q 221.203 50.152 221.484 51.663 A 155.243 155.243 0 0 1 221.533 51.929 A 1577.479 1577.479 0 0 0 221.847 53.628 Q 221.986 54.381 222.14 55.207 A 2862.115 2862.115 0 0 0 222.461 56.934 L 233.789 47.412 A 3.501 3.501 0 0 1 234.045 47.241 Q 234.316 47.079 234.527 47.036 A 0.717 0.717 0 0 1 234.668 47.022 Q 234.89 47.022 235.296 47.219 A 5.384 5.384 0 0 1 235.571 47.363 A 10.15 10.15 0 0 1 236.487 47.945 A 11.668 11.668 0 0 1 236.792 48.169 A 20.399 20.399 0 0 1 237.366 48.621 A 14.931 14.931 0 0 1 237.866 49.048 Q 238.286 49.423 238.286 49.579 A 0.095 0.095 0 0 1 238.281 49.609 A 0.153 0.153 0 0 1 238.268 49.667 Q 238.23 49.758 238.086 49.902 Q 237.948 50.041 236.853 50.984 A 309.725 309.725 0 0 1 236.719 51.099 A 147.862 147.862 0 0 1 236.058 51.663 Q 235.141 52.442 233.89 53.485 A 484.584 484.584 0 0 1 233.472 53.833 Q 231.73 55.281 229.556 57.089 A 31367.103 31367.103 0 0 0 228.833 57.691 A 2771.284 2771.284 0 0 1 224.791 61.046 A 3115.978 3115.978 0 0 1 223.389 62.207 A 1068.976 1068.976 0 0 1 224.028 65.616 A 1016.621 1016.621 0 0 1 224.048 65.723 A 274.734 274.734 0 0 0 224.335 67.244 Q 224.472 67.959 224.598 68.595 A 160.621 160.621 0 0 0 224.634 68.775 Q 224.901 70.109 225.119 71.01 A 28.381 28.381 0 0 0 225.122 71.021 Q 225.301 71.755 225.431 72.021 A 0.619 0.619 0 0 0 225.488 72.119 A 5.284 5.284 0 0 0 225.594 72.319 Q 225.726 72.557 225.928 72.876 A 0.829 0.829 0 0 0 226.285 73.18 Q 226.577 73.318 227.045 73.337 A 3.776 3.776 0 0 0 227.197 73.34 A 1.265 1.265 0 0 0 227.524 73.29 Q 228.033 73.152 228.857 72.632 A 25.724 25.724 0 0 0 229.748 72.043 Q 230.53 71.503 231.445 70.801 A 90.503 90.503 0 0 0 233.334 69.311 A 109.494 109.494 0 0 0 234.521 68.335 A 144.627 144.627 0 0 0 236.856 66.348 A 130.019 130.019 0 0 0 237.598 65.698 A 599.365 599.365 0 0 0 238.979 64.475 Q 239.633 63.893 240.216 63.371 A 446.886 446.886 0 0 0 240.234 63.355 Q 241.396 62.314 241.982 61.825 A 21.104 21.104 0 0 1 241.992 61.817 Q 242.429 62.253 243.035 62.931 A 52.191 52.191 0 0 1 243.042 62.94 A 145.838 145.838 0 0 0 243.634 63.599 A 117.818 117.818 0 0 0 244.189 64.209 Q 243.115 65.283 241.479 66.846 Q 239.844 68.408 237.891 70.068 Q 235.937 71.729 233.838 73.389 A 71.962 71.962 0 0 1 231.271 75.33 A 59.393 59.393 0 0 1 229.785 76.367 A 33.026 33.026 0 0 1 227.95 77.524 Q 227.063 78.041 226.233 78.439 A 20.06 20.06 0 0 1 226.123 78.491 Q 224.414 79.297 223.291 79.297 A 18.268 18.268 0 0 1 220.749 79.129 Q 219.211 78.912 217.92 78.418 A 6.574 6.574 0 0 1 216.776 77.858 Q 215.501 77.059 215.186 75.83 A 114.362 114.362 0 0 1 214.429 73.047 A 59.27 59.27 0 0 1 213.77 70.215 Z M 129.102 42.334 L 122.217 42.334 L 122.168 42.334 A 0.039 0.039 0 0 1 122.132 42.31 Q 122.122 42.291 122.12 42.257 A 0.329 0.329 0 0 1 122.119 42.236 A 1.136 1.136 0 0 1 122.137 42.05 Q 122.17 41.853 122.266 41.578 A 5.839 5.839 0 0 1 122.339 41.382 Q 122.559 40.82 122.876 40.21 Q 123.193 39.6 123.608 39.087 A 3.313 3.313 0 0 1 123.865 38.803 Q 124.145 38.529 124.414 38.428 L 130.762 38.135 A 280.291 280.291 0 0 1 132.098 34.943 A 221.786 221.786 0 0 1 133.374 32.007 Q 134.619 29.199 135.596 27.197 Q 135.84 26.66 136.108 26.05 A 4.557 4.557 0 0 1 136.488 25.363 A 5.984 5.984 0 0 1 136.89 24.829 Q 137.31 24.329 137.959 23.796 A 12.688 12.688 0 0 1 138.257 23.56 Q 138.876 23.082 139.816 22.591 A 19.114 19.114 0 0 1 140.576 22.217 A 29.539 29.539 0 0 1 141.447 21.8 Q 141.935 21.576 142.493 21.337 A 57.778 57.778 0 0 1 143.188 21.045 Q 144.727 20.41 146.216 19.873 A 62.014 62.014 0 0 1 147.617 19.386 Q 148.284 19.163 148.887 18.981 A 37.477 37.477 0 0 1 148.926 18.97 A 16.664 16.664 0 0 1 149.493 18.81 Q 150.279 18.604 150.681 18.604 A 1.009 1.009 0 0 1 150.684 18.604 A 1.865 1.865 0 0 1 150.837 18.609 Q 151.172 18.637 151.172 18.799 L 151.172 18.897 A 0.111 0.111 0 0 1 151.168 18.922 Q 151.152 18.984 151.077 19.136 A 4.182 4.182 0 0 1 151.074 19.141 Q 150.835 19.54 150.27 20.704 A 100.169 100.169 0 0 0 150 21.265 Q 149.238 22.861 148.127 25.248 A 811.794 811.794 0 0 0 148.071 25.366 Q 147 27.668 145.716 30.566 A 437.719 437.719 0 0 0 145.532 30.982 A 316.494 316.494 0 0 0 144.122 34.223 A 368.167 368.167 0 0 0 142.676 37.647 L 154.395 37.207 A 0.581 0.581 0 0 1 154.533 37.222 Q 154.851 37.3 154.689 37.79 A 1.609 1.609 0 0 1 154.687 37.793 Q 154.492 38.379 153.955 39.16 A 18.138 18.138 0 0 1 153.227 40.143 A 22.379 22.379 0 0 1 152.71 40.772 Q 152.002 41.602 151.514 42.041 A 0.414 0.414 0 0 1 151.446 42.095 Q 151.371 42.143 151.249 42.191 A 2.485 2.485 0 0 1 151.123 42.236 Q 150.83 42.334 150.391 42.334 L 140.723 42.334 Q 138.965 46.582 137.354 50.928 A 229.635 229.635 0 0 0 135.473 56.188 A 191.397 191.397 0 0 0 134.473 59.18 Q 133.203 63.086 132.446 66.358 A 39.443 39.443 0 0 0 132.047 68.288 Q 131.695 70.253 131.69 71.682 A 11.768 11.768 0 0 0 131.689 71.729 A 0.422 0.422 0 0 0 131.704 71.845 Q 131.741 71.975 131.874 72.009 A 0.432 0.432 0 0 0 131.982 72.022 A 1.426 1.426 0 0 0 132.316 71.976 Q 132.65 71.894 133.112 71.668 A 9.13 9.13 0 0 0 133.594 71.411 A 19.744 19.744 0 0 0 134.437 70.902 Q 134.896 70.61 135.396 70.262 A 36.345 36.345 0 0 0 136.011 69.824 A 107.361 107.361 0 0 0 137.396 68.799 A 132.889 132.889 0 0 0 138.867 67.676 A 96.367 96.367 0 0 0 141.055 65.932 A 86.711 86.711 0 0 0 141.748 65.357 A 239.663 239.663 0 0 0 143.048 64.258 A 176.292 176.292 0 0 0 144.214 63.257 Q 145.312 62.305 145.898 61.817 Q 146.338 62.256 146.948 62.94 A 145.838 145.838 0 0 0 147.54 63.599 A 117.818 117.818 0 0 0 148.096 64.209 A 114.41 114.41 0 0 1 147.215 65.08 Q 146.417 65.86 145.41 66.821 A 83.773 83.773 0 0 1 143.068 68.971 A 98.07 98.07 0 0 1 141.919 69.971 A 137.542 137.542 0 0 1 138.013 73.193 A 58.334 58.334 0 0 1 135.518 75.074 A 49.11 49.11 0 0 1 134.058 76.074 A 35.159 35.159 0 0 1 132.308 77.157 Q 131.351 77.71 130.469 78.125 A 11.364 11.364 0 0 1 129.485 78.537 Q 128.492 78.894 127.737 78.906 A 3.283 3.283 0 0 1 127.686 78.906 Q 126.855 78.906 125.513 78.15 A 15.619 15.619 0 0 1 123.399 76.71 A 17.875 17.875 0 0 1 122.9 76.294 A 17.905 17.905 0 0 1 121.381 74.821 A 15.06 15.06 0 0 1 120.703 74.024 A 6.883 6.883 0 0 1 120.276 73.425 Q 119.775 72.631 119.775 72.022 A 8.223 8.223 0 0 1 119.832 71.123 Q 119.938 70.176 120.24 68.813 A 48.085 48.085 0 0 1 120.581 67.383 Q 121.273 64.655 122.344 61.261 A 166.325 166.325 0 0 1 122.705 60.132 A 233.56 233.56 0 0 1 124.115 55.914 A 288.628 288.628 0 0 1 125.708 51.416 A 515.133 515.133 0 0 1 129.102 42.334 Z M 266.699 50.147 L 266.602 50.244 A 33.695 33.695 0 0 0 262.451 52.857 Q 260.498 54.297 258.984 55.567 A 79.271 79.271 0 0 0 256.534 57.763 A 68.533 68.533 0 0 0 255.713 58.545 Q 252.41 61.803 250.994 64.243 A 12.153 12.153 0 0 0 250.781 64.624 A 25.08 25.08 0 0 0 250.215 65.747 Q 249.414 67.451 249.414 68.311 A 1.472 1.472 0 0 0 249.443 68.619 Q 249.54 69.069 249.956 69.131 A 0.959 0.959 0 0 0 250.098 69.141 A 2.209 2.209 0 0 0 250.598 69.077 Q 251.134 68.952 251.831 68.579 Q 252.881 68.018 254.199 67.066 A 52.575 52.575 0 0 0 255.494 66.098 Q 256.166 65.581 256.895 64.99 A 86.309 86.309 0 0 0 257.104 64.819 A 526.734 526.734 0 0 0 259.554 62.81 A 593.757 593.757 0 0 0 260.4 62.109 A 36.925 36.925 0 0 0 263.33 59.473 A 36.585 36.585 0 0 0 264.575 58.215 A 47.264 47.264 0 0 0 265.869 56.787 Q 267.187 55.274 268.115 53.711 Q 268.115 53.662 268.164 53.613 Q 268.206 53.572 268.283 53.601 A 0.304 0.304 0 0 1 268.311 53.613 A 3.585 3.585 0 0 1 268.661 53.908 Q 269.005 54.233 269.4 54.737 A 12.498 12.498 0 0 1 269.531 54.907 A 15.496 15.496 0 0 1 270.578 56.488 A 17.455 17.455 0 0 1 270.801 56.885 A 23.27 23.27 0 0 1 271.466 58.199 A 19.384 19.384 0 0 1 271.802 58.96 Q 272.217 59.961 272.217 60.498 A 40.116 40.116 0 0 0 271.332 62.427 Q 270.922 63.393 270.618 64.272 A 22.713 22.713 0 0 0 270.483 64.673 A 49.384 49.384 0 0 0 270.067 66.018 Q 269.871 66.684 269.721 67.28 A 25.815 25.815 0 0 0 269.556 67.969 Q 269.316 69.039 269.215 69.872 A 11.022 11.022 0 0 0 269.165 70.386 A 42.887 42.887 0 0 0 269.133 70.857 Q 269.101 71.366 269.094 71.721 A 9.801 9.801 0 0 0 269.092 71.924 A 0.422 0.422 0 0 0 269.106 72.04 Q 269.144 72.17 269.276 72.204 A 0.432 0.432 0 0 0 269.385 72.217 A 0.999 0.999 0 0 0 269.641 72.177 Q 270.038 72.07 270.704 71.671 A 11.651 11.651 0 0 0 270.85 71.582 A 25.873 25.873 0 0 0 271.66 71.058 Q 272.369 70.581 273.193 69.971 A 64.673 64.673 0 0 0 274.554 68.933 A 82.216 82.216 0 0 0 276.001 67.774 A 171.623 171.623 0 0 0 278.514 65.675 A 154.987 154.987 0 0 0 278.857 65.381 A 212.544 212.544 0 0 0 280.157 64.258 A 156.859 156.859 0 0 0 281.323 63.233 A 297.232 297.232 0 0 0 281.841 62.772 Q 282.568 62.122 283.008 61.719 A 18.404 18.404 0 0 1 283.241 61.957 Q 283.56 62.287 283.97 62.739 A 56.021 56.021 0 0 1 284.106 62.891 A 230.472 230.472 0 0 0 284.734 63.585 Q 285.034 63.916 285.303 64.209 Q 284.497 64.948 283.472 65.905 A 434.171 434.171 0 0 0 282.495 66.821 A 140.316 140.316 0 0 1 280.798 68.39 A 165.635 165.635 0 0 1 278.979 70.02 A 132.826 132.826 0 0 1 275.098 73.316 Q 273.096 74.951 271.191 76.221 A 32.819 32.819 0 0 1 269.336 77.374 A 24.606 24.606 0 0 1 267.578 78.296 Q 265.869 79.102 264.6 79.102 A 5.285 5.285 0 0 1 263.678 79.016 Q 263.256 78.941 262.801 78.801 A 8.756 8.756 0 0 1 262.671 78.76 Q 261.621 78.418 260.742 77.808 Q 259.863 77.197 259.277 76.367 A 3.143 3.143 0 0 1 258.691 74.512 A 15.816 15.816 0 0 0 258.688 74.195 Q 258.682 73.911 258.667 73.56 Q 258.649 73.139 258.699 72.525 A 16.797 16.797 0 0 1 258.74 72.095 Q 258.807 71.474 258.967 70.668 A 28.95 28.95 0 0 1 259.131 69.898 A 30.116 30.116 0 0 1 259.379 68.889 Q 259.634 67.919 260.01 66.699 A 41.784 41.784 0 0 1 258.258 68.445 A 56.058 56.058 0 0 1 256.226 70.264 A 57.517 57.517 0 0 1 251.66 73.779 A 56.999 56.999 0 0 1 246.851 76.782 A 32.88 32.88 0 0 1 244.806 77.831 Q 243.774 78.313 242.819 78.657 A 19.103 19.103 0 0 1 242.383 78.809 A 2.059 2.059 0 0 1 242.253 78.856 Q 242.123 78.898 242.029 78.905 A 0.495 0.495 0 0 1 241.992 78.906 L 241.699 78.906 A 1.346 1.346 0 0 1 241.364 78.859 Q 240.96 78.754 240.405 78.418 A 7.164 7.164 0 0 1 239.507 77.768 A 9.348 9.348 0 0 1 238.818 77.124 A 8.431 8.431 0 0 1 237.476 75.293 A 4.725 4.725 0 0 1 237.046 74.236 A 3.86 3.86 0 0 1 236.914 73.242 A 1.711 1.711 0 0 1 236.924 73.084 Q 236.961 72.718 237.128 71.744 A 92.503 92.503 0 0 1 237.207 71.289 Q 237.487 69.705 238.5 67.298 A 39.314 39.314 0 0 1 238.599 67.066 A 26.93 26.93 0 0 1 239.665 64.878 Q 240.57 63.203 241.846 61.304 A 29.403 29.403 0 0 1 244.025 58.473 Q 245.219 57.092 246.692 55.681 A 51.544 51.544 0 0 1 247.705 54.736 A 40.698 40.698 0 0 1 251.807 51.514 A 44.827 44.827 0 0 1 253.796 50.232 A 60.032 60.032 0 0 1 256.055 48.926 A 25.258 25.258 0 0 1 261.084 46.826 Q 261.182 46.826 261.255 46.777 Q 261.321 46.734 261.445 46.808 A 0.673 0.673 0 0 1 261.475 46.826 Q 262.061 47.022 262.866 47.437 Q 263.672 47.852 264.478 48.316 A 15.436 15.436 0 0 1 265.234 48.779 A 11.557 11.557 0 0 1 265.894 49.243 Q 266.363 49.6 266.587 49.856 A 1.406 1.406 0 0 1 266.699 50 A 0.301 0.301 0 0 1 266.712 50.029 Q 266.74 50.105 266.699 50.147 Z M 82.08 61.817 L 84.473 64.209 Q 80.279 68.312 76.532 71.18 A 61.316 61.316 0 0 1 76.001 71.582 A 59.119 59.119 0 0 1 72.143 74.249 A 43.279 43.279 0 0 1 68.408 76.367 A 36.709 36.709 0 0 1 64.874 77.918 A 28.134 28.134 0 0 1 61.499 78.955 A 28.537 28.537 0 0 1 56.453 79.699 A 25.484 25.484 0 0 1 55.078 79.736 Q 53.76 79.736 52.148 78.76 Q 50.537 77.783 49.146 76.392 A 16.587 16.587 0 0 1 47.451 74.421 A 14.272 14.272 0 0 1 46.826 73.486 A 9.007 9.007 0 0 1 46.357 72.626 Q 45.927 71.714 45.9 70.992 A 2.556 2.556 0 0 1 45.898 70.899 A 25.426 25.426 0 0 1 46.286 66.376 A 21.009 21.009 0 0 1 46.997 63.55 Q 48.096 60.205 49.902 57.52 A 24.649 24.649 0 0 1 54.028 52.783 A 26.875 26.875 0 0 1 57.771 49.996 A 24.065 24.065 0 0 1 58.862 49.365 A 24.706 24.706 0 0 1 62.308 47.809 A 21.256 21.256 0 0 1 63.867 47.315 A 20.521 20.521 0 0 1 66.188 46.813 A 14.999 14.999 0 0 1 68.457 46.631 A 5.52 5.52 0 0 1 70.62 47.085 A 7.044 7.044 0 0 1 71.46 47.51 A 12.703 12.703 0 0 1 74.17 49.658 A 13.105 13.105 0 0 1 75.572 51.377 A 11.228 11.228 0 0 1 76.147 52.319 A 8.339 8.339 0 0 1 76.547 53.153 Q 76.725 53.591 76.814 53.985 A 3.403 3.403 0 0 1 76.904 54.736 A 4.423 4.423 0 0 1 76.534 56.468 Q 76.274 57.085 75.829 57.711 A 8.817 8.817 0 0 1 75.513 58.13 A 14.406 14.406 0 0 1 74.193 59.55 Q 73.503 60.205 72.656 60.869 A 28.844 28.844 0 0 1 71.582 61.67 A 43.508 43.508 0 0 1 69.164 63.265 Q 67.484 64.299 65.479 65.357 A 114.464 114.464 0 0 1 61.731 67.243 A 144.156 144.156 0 0 1 57.617 69.141 A 18.495 18.495 0 0 0 57.471 71.436 A 5.426 5.426 0 0 0 57.512 72.131 Q 57.61 72.888 57.943 73.298 A 1.292 1.292 0 0 0 58.13 73.486 A 1.757 1.757 0 0 0 58.622 73.758 Q 59.325 74.024 60.596 74.024 A 17.202 17.202 0 0 0 66.316 73.079 A 16.406 16.406 0 0 0 66.675 72.949 Q 69.531 71.875 72.168 70.166 Q 74.805 68.457 77.246 66.26 Q 79.687 64.063 82.08 61.817 Z M 437.109 61.817 L 439.502 64.209 Q 435.308 68.312 431.561 71.18 A 61.316 61.316 0 0 1 431.03 71.582 A 59.119 59.119 0 0 1 427.172 74.249 A 43.279 43.279 0 0 1 423.438 76.367 A 36.709 36.709 0 0 1 419.904 77.918 A 28.134 28.134 0 0 1 416.528 78.955 A 28.537 28.537 0 0 1 411.483 79.699 A 25.484 25.484 0 0 1 410.107 79.736 Q 408.789 79.736 407.178 78.76 Q 405.566 77.783 404.175 76.392 A 16.587 16.587 0 0 1 402.481 74.421 A 14.272 14.272 0 0 1 401.855 73.486 A 9.007 9.007 0 0 1 401.386 72.626 Q 400.956 71.714 400.929 70.992 A 2.556 2.556 0 0 1 400.928 70.899 A 25.426 25.426 0 0 1 401.315 66.376 A 21.009 21.009 0 0 1 402.026 63.55 Q 403.125 60.205 404.932 57.52 A 24.649 24.649 0 0 1 409.058 52.783 A 26.875 26.875 0 0 1 412.801 49.996 A 24.065 24.065 0 0 1 413.892 49.365 A 24.706 24.706 0 0 1 417.338 47.809 A 21.256 21.256 0 0 1 418.896 47.315 A 20.521 20.521 0 0 1 421.217 46.813 A 14.999 14.999 0 0 1 423.486 46.631 A 5.52 5.52 0 0 1 425.65 47.085 A 7.044 7.044 0 0 1 426.489 47.51 A 12.703 12.703 0 0 1 429.199 49.658 A 13.105 13.105 0 0 1 430.602 51.377 A 11.228 11.228 0 0 1 431.177 52.319 A 8.339 8.339 0 0 1 431.576 53.153 Q 431.754 53.591 431.843 53.985 A 3.403 3.403 0 0 1 431.934 54.736 A 4.423 4.423 0 0 1 431.564 56.468 Q 431.303 57.085 430.859 57.711 A 8.817 8.817 0 0 1 430.542 58.13 A 14.406 14.406 0 0 1 429.222 59.55 Q 428.533 60.205 427.685 60.869 A 28.844 28.844 0 0 1 426.611 61.67 A 43.508 43.508 0 0 1 424.193 63.265 Q 422.513 64.299 420.508 65.357 A 114.464 114.464 0 0 1 416.76 67.243 A 144.156 144.156 0 0 1 412.646 69.141 A 18.495 18.495 0 0 0 412.5 71.436 A 5.426 5.426 0 0 0 412.541 72.131 Q 412.639 72.888 412.972 73.298 A 1.292 1.292 0 0 0 413.159 73.486 A 1.757 1.757 0 0 0 413.652 73.758 Q 414.355 74.024 415.625 74.024 A 17.202 17.202 0 0 0 421.346 73.079 A 16.406 16.406 0 0 0 421.704 72.949 Q 424.561 71.875 427.197 70.166 Q 429.834 68.457 432.275 66.26 Q 434.717 64.063 437.109 61.817 Z M 397.217 37.012 A 106.854 106.854 0 0 0 396.04 39.74 A 96.139 96.139 0 0 0 395.679 40.625 Q 394.971 42.383 394.336 44.092 A 88.919 88.919 0 0 0 396.123 42.013 A 72.719 72.719 0 0 0 397.095 40.82 Q 397.951 39.746 398.634 38.88 A 277.777 277.777 0 0 0 399.219 38.135 Q 400.244 36.817 401.074 35.645 A 198.041 198.041 0 0 0 404.168 31.192 Q 405.603 29.062 406.821 27.114 A 119.867 119.867 0 0 0 406.982 26.856 Q 408.889 23.79 410.28 21.283 A 81.116 81.116 0 0 0 411.084 19.8 Q 412.678 16.781 413.436 14.766 A 21.423 21.423 0 0 0 413.452 14.722 A 24.06 24.06 0 0 0 413.774 13.808 Q 414.209 12.483 414.209 11.817 A 4.02 4.02 0 0 0 414.207 11.702 Q 414.204 11.581 414.193 11.499 A 0.826 0.826 0 0 0 414.185 11.45 Q 414.163 11.343 413.972 11.33 A 0.825 0.825 0 0 0 413.916 11.328 A 0.606 0.606 0 0 0 413.681 11.392 Q 413.165 11.624 411.998 12.692 A 29.3 29.3 0 0 0 411.914 12.769 Q 410.564 14.013 408.685 16.516 A 64.984 64.984 0 0 0 408.081 17.334 A 64.917 64.917 0 0 0 406.303 19.922 Q 405.53 21.101 404.705 22.45 A 134.471 134.471 0 0 0 403.003 25.317 Q 400.195 30.176 397.217 37.012 Z M 65.158 53.033 A 7.549 7.549 0 0 0 65.137 53.052 A 12.123 12.123 0 0 0 64.111 54.097 Q 63.617 54.661 63.123 55.343 A 21.79 21.79 0 0 0 62.793 55.811 A 26.888 26.888 0 0 0 61.514 57.88 A 34.95 34.95 0 0 0 60.547 59.741 Q 59.473 61.963 58.691 64.356 A 57.856 57.856 0 0 0 62.231 61.865 A 26.702 26.702 0 0 0 64.603 59.841 A 23.306 23.306 0 0 0 65.332 59.107 A 15.734 15.734 0 0 0 66.7 57.463 A 12.75 12.75 0 0 0 67.529 56.152 A 6.969 6.969 0 0 0 68.165 54.591 A 5.691 5.691 0 0 0 68.359 53.125 A 1.23 1.23 0 0 0 68.091 52.344 A 0.863 0.863 0 0 0 67.588 52.034 A 1.356 1.356 0 0 0 67.285 52.002 Q 66.317 52.002 65.158 53.033 Z M 420.187 53.033 A 7.549 7.549 0 0 0 420.166 53.052 A 12.123 12.123 0 0 0 419.141 54.097 Q 418.646 54.661 418.152 55.343 A 21.79 21.79 0 0 0 417.822 55.811 A 26.888 26.888 0 0 0 416.544 57.88 A 34.95 34.95 0 0 0 415.576 59.741 Q 414.502 61.963 413.721 64.356 A 57.856 57.856 0 0 0 417.261 61.865 A 26.702 26.702 0 0 0 419.632 59.841 A 23.306 23.306 0 0 0 420.361 59.107 A 15.734 15.734 0 0 0 421.729 57.463 A 12.75 12.75 0 0 0 422.559 56.152 A 6.969 6.969 0 0 0 423.194 54.591 A 5.691 5.691 0 0 0 423.389 53.125 A 1.23 1.23 0 0 0 423.12 52.344 A 0.863 0.863 0 0 0 422.617 52.034 A 1.356 1.356 0 0 0 422.314 52.002 Q 421.347 52.002 420.187 53.033 Z"/></g></svg>
